<mxfile host="app.diagrams.net" modified="2023-11-14T15:21:00.575Z" agent="Mozilla/5.0 (Windows NT 10.0; Win64; x64) AppleWebKit/537.36 (KHTML, like Gecko) Chrome/119.0.0.0 Safari/537.36 Edg/119.0.0.0" etag="NU3-l2tJsqrLkbb_oUIK" version="22.1.0" type="github">
  <diagram id="C5RBs43oDa-KdzZeNtuy" name="Page-1">
    <mxGraphModel dx="488" dy="1648" grid="1" gridSize="10" guides="1" tooltips="1" connect="1" arrows="1" fold="1" page="1" pageScale="1" pageWidth="827" pageHeight="1169" math="0" shadow="0">
      <root>
        <mxCell id="WIyWlLk6GJQsqaUBKTNV-0" />
        <mxCell id="WIyWlLk6GJQsqaUBKTNV-1" parent="WIyWlLk6GJQsqaUBKTNV-0" />
        <mxCell id="deGhh2JBwUFLAN3jZQK6-28" style="edgeStyle=orthogonalEdgeStyle;rounded=0;orthogonalLoop=1;jettySize=auto;html=1;exitX=0;exitY=0.5;exitDx=0;exitDy=0;entryX=0.5;entryY=0;entryDx=0;entryDy=0;" edge="1" parent="WIyWlLk6GJQsqaUBKTNV-1" source="deGhh2JBwUFLAN3jZQK6-20" target="deGhh2JBwUFLAN3jZQK6-27">
          <mxGeometry relative="1" as="geometry" />
        </mxCell>
        <mxCell id="deGhh2JBwUFLAN3jZQK6-44" style="edgeStyle=orthogonalEdgeStyle;rounded=0;orthogonalLoop=1;jettySize=auto;html=1;exitX=1;exitY=0.5;exitDx=0;exitDy=0;" edge="1" parent="WIyWlLk6GJQsqaUBKTNV-1" source="deGhh2JBwUFLAN3jZQK6-20" target="deGhh2JBwUFLAN3jZQK6-42">
          <mxGeometry relative="1" as="geometry" />
        </mxCell>
        <object label="&lt;p style=&quot;margin:0px;margin-top:4px;text-align:center;&quot;&gt;&lt;b&gt;User&lt;/b&gt;&lt;/p&gt;&lt;hr size=&quot;1&quot;&gt;&lt;p style=&quot;margin:0px;margin-left:4px;&quot;&gt;Id Long&lt;/p&gt;&lt;p style=&quot;margin:0px;margin-left:4px;&quot;&gt;E-mail String&lt;br&gt;&lt;/p&gt;&lt;p style=&quot;margin:0px;margin-left:4px;&quot;&gt;Password String&lt;/p&gt;&lt;p style=&quot;margin:0px;margin-left:4px;&quot;&gt;Number String&lt;/p&gt;&lt;p style=&quot;margin:0px;margin-left:4px;&quot;&gt;Name String&lt;/p&gt;&lt;p style=&quot;margin:0px;margin-left:4px;&quot;&gt;Lastname String&lt;/p&gt;&lt;p style=&quot;margin:0px;margin-left:4px;&quot;&gt;&lt;br&gt;&lt;/p&gt;&lt;hr size=&quot;1&quot;&gt;&lt;p style=&quot;margin:0px;margin-left:4px;&quot;&gt;&lt;br&gt;&lt;/p&gt;" Password="String" saddsaad="" ads="asd" asddasasd="dsaasadsd" id="deGhh2JBwUFLAN3jZQK6-20">
          <mxCell style="verticalAlign=top;align=left;overflow=fill;fontSize=12;fontFamily=Helvetica;html=1;whiteSpace=wrap;fillColor=#f5f5f5;fontColor=#333333;strokeColor=#666666;" vertex="1" parent="WIyWlLk6GJQsqaUBKTNV-1">
            <mxGeometry x="320" y="-110" width="160" height="160" as="geometry" />
          </mxCell>
        </object>
        <mxCell id="deGhh2JBwUFLAN3jZQK6-31" style="edgeStyle=orthogonalEdgeStyle;rounded=0;orthogonalLoop=1;jettySize=auto;html=1;exitX=0.5;exitY=1;exitDx=0;exitDy=0;" edge="1" parent="WIyWlLk6GJQsqaUBKTNV-1" source="deGhh2JBwUFLAN3jZQK6-27" target="deGhh2JBwUFLAN3jZQK6-30">
          <mxGeometry relative="1" as="geometry" />
        </mxCell>
        <mxCell id="deGhh2JBwUFLAN3jZQK6-27" value="&lt;p style=&quot;margin:0px;margin-top:4px;text-align:center;&quot;&gt;&lt;b&gt;Cart&lt;/b&gt;&lt;/p&gt;cart id&lt;br&gt;quantity int&lt;br&gt;User user id&lt;br&gt;Product product id&lt;br&gt;&lt;hr size=&quot;1&quot;&gt;&lt;div style=&quot;height:2px;&quot;&gt;&lt;/div&gt;&lt;hr size=&quot;1&quot;&gt;&lt;div style=&quot;height:2px;&quot;&gt;&lt;/div&gt;" style="verticalAlign=top;align=left;overflow=fill;fontSize=12;fontFamily=Helvetica;html=1;whiteSpace=wrap;" vertex="1" parent="WIyWlLk6GJQsqaUBKTNV-1">
          <mxGeometry x="60" y="30" width="140" height="120" as="geometry" />
        </mxCell>
        <mxCell id="deGhh2JBwUFLAN3jZQK6-30" value="&lt;p style=&quot;margin:0px;margin-top:4px;text-align:center;&quot;&gt;&lt;b&gt;Product&lt;/b&gt;&lt;/p&gt;&lt;hr size=&quot;1&quot;&gt;&lt;p style=&quot;margin:0px;margin-left:4px;&quot;&gt;product id long&lt;/p&gt;&lt;p style=&quot;margin:0px;margin-left:4px;&quot;&gt;name String&lt;/p&gt;&lt;p style=&quot;margin:0px;margin-left:4px;&quot;&gt;description String&lt;/p&gt;&lt;p style=&quot;margin:0px;margin-left:4px;&quot;&gt;price String&lt;/p&gt;&lt;hr size=&quot;1&quot;&gt;&lt;p style=&quot;margin:0px;margin-left:4px;&quot;&gt;+ method(): Type&lt;/p&gt;" style="verticalAlign=top;align=left;overflow=fill;fontSize=12;fontFamily=Helvetica;html=1;whiteSpace=wrap;" vertex="1" parent="WIyWlLk6GJQsqaUBKTNV-1">
          <mxGeometry x="320" y="200" width="160" height="120" as="geometry" />
        </mxCell>
        <mxCell id="deGhh2JBwUFLAN3jZQK6-34" style="edgeStyle=orthogonalEdgeStyle;rounded=0;orthogonalLoop=1;jettySize=auto;html=1;entryX=0.5;entryY=1;entryDx=0;entryDy=0;" edge="1" parent="WIyWlLk6GJQsqaUBKTNV-1" source="deGhh2JBwUFLAN3jZQK6-33" target="deGhh2JBwUFLAN3jZQK6-30">
          <mxGeometry relative="1" as="geometry" />
        </mxCell>
        <mxCell id="deGhh2JBwUFLAN3jZQK6-33" value="&lt;p style=&quot;margin:0px;margin-top:4px;text-align:center;&quot;&gt;&lt;b&gt;Category&lt;/b&gt;&lt;/p&gt;&lt;hr size=&quot;1&quot;&gt;&lt;p style=&quot;margin:0px;margin-left:4px;&quot;&gt;Category id&lt;/p&gt;&lt;p style=&quot;margin:0px;margin-left:4px;&quot;&gt;Name String&lt;/p&gt;&lt;hr size=&quot;1&quot;&gt;&lt;p style=&quot;margin:0px;margin-left:4px;&quot;&gt;+ method(): Type&lt;/p&gt;" style="verticalAlign=top;align=left;overflow=fill;fontSize=12;fontFamily=Helvetica;html=1;whiteSpace=wrap;" vertex="1" parent="WIyWlLk6GJQsqaUBKTNV-1">
          <mxGeometry x="320" y="390" width="160" height="90" as="geometry" />
        </mxCell>
        <mxCell id="deGhh2JBwUFLAN3jZQK6-42" value="&lt;p style=&quot;margin:0px;margin-top:4px;text-align:center;&quot;&gt;&lt;b&gt;Order&lt;/b&gt;&lt;/p&gt;&lt;hr size=&quot;1&quot;&gt;&lt;p style=&quot;margin:0px;margin-left:4px;&quot;&gt;order_item_id&lt;/p&gt;&lt;p style=&quot;margin:0px;margin-left:4px;&quot;&gt;quantity&lt;/p&gt;&lt;p style=&quot;margin:0px;margin-left:4px;&quot;&gt;price&lt;/p&gt;&lt;p style=&quot;margin:0px;margin-left:4px;&quot;&gt;Product product&lt;/p&gt;&lt;hr size=&quot;1&quot;&gt;&lt;p style=&quot;margin:0px;margin-left:4px;&quot;&gt;+ method(): Type&lt;/p&gt;" style="verticalAlign=top;align=left;overflow=fill;fontSize=12;fontFamily=Helvetica;html=1;whiteSpace=wrap;" vertex="1" parent="WIyWlLk6GJQsqaUBKTNV-1">
          <mxGeometry x="550" y="70" width="160" height="90" as="geometry" />
        </mxCell>
        <mxCell id="deGhh2JBwUFLAN3jZQK6-43" style="edgeStyle=orthogonalEdgeStyle;rounded=0;orthogonalLoop=1;jettySize=auto;html=1;exitX=1;exitY=0.5;exitDx=0;exitDy=0;entryX=0.62;entryY=0.977;entryDx=0;entryDy=0;entryPerimeter=0;" edge="1" parent="WIyWlLk6GJQsqaUBKTNV-1" source="deGhh2JBwUFLAN3jZQK6-30" target="deGhh2JBwUFLAN3jZQK6-42">
          <mxGeometry relative="1" as="geometry" />
        </mxCell>
      </root>
    </mxGraphModel>
  </diagram>
</mxfile>
